<mxfile host="app.diagrams.net" modified="2022-01-23T15:52:17.194Z" agent="5.0 (Windows)" etag="Jw8Xg9KR0RdaWUWM4KKp" version="16.4.5" type="github">
  <diagram id="Arsce1lhnxzf3GvLfII_" name="第1頁">
    <mxGraphModel dx="1497" dy="1610" grid="1" gridSize="10" guides="1" tooltips="1" connect="1" arrows="1" fold="1" page="1" pageScale="1" pageWidth="1169" pageHeight="827" math="0" shadow="0">
      <root>
        <mxCell id="0" />
        <mxCell id="1" parent="0" />
        <mxCell id="dT_OWnXESL6n3b-seBim-1" value="users" style="swimlane;fontStyle=0;childLayout=stackLayout;horizontal=1;startSize=40;horizontalStack=0;resizeParent=1;resizeParentMax=0;resizeLast=0;collapsible=1;marginBottom=0;align=left;fontSize=16;fontColor=#FFFFFF;fillColor=#FF6602;spacing=0;strokeColor=#FFFFFF;strokeWidth=2;spacingLeft=10;" vertex="1" parent="1">
          <mxGeometry x="240" y="-800" width="165" height="460" as="geometry">
            <mxRectangle x="150" y="220" width="110" height="40" as="alternateBounds" />
          </mxGeometry>
        </mxCell>
        <mxCell id="dT_OWnXESL6n3b-seBim-2" value="PK : id" style="text;strokeColor=#FFFFFF;fillColor=#FDE5CD;spacingLeft=10;spacingRight=0;overflow=hidden;rotatable=0;points=[[0,0.5],[1,0.5]];portConstraint=eastwest;fontSize=16;strokeWidth=2;perimeterSpacing=0;sketch=0;shadow=0;rounded=0;glass=0;spacing=0;fontStyle=0" vertex="1" parent="dT_OWnXESL6n3b-seBim-1">
          <mxGeometry y="40" width="165" height="30" as="geometry" />
        </mxCell>
        <mxCell id="dT_OWnXESL6n3b-seBim-3" value="name" style="text;strokeColor=#FFFFFF;fillColor=#FDE5CD;spacingLeft=10;spacingRight=0;overflow=hidden;rotatable=0;points=[[0,0.5],[1,0.5]];portConstraint=eastwest;fontSize=16;strokeWidth=2;sketch=0;shadow=0;rounded=0;glass=0;spacing=0;" vertex="1" parent="dT_OWnXESL6n3b-seBim-1">
          <mxGeometry y="70" width="165" height="30" as="geometry" />
        </mxCell>
        <mxCell id="dT_OWnXESL6n3b-seBim-6" value="acount" style="text;strokeColor=#FFFFFF;fillColor=#FDE5CD;spacingLeft=10;spacingRight=0;overflow=hidden;rotatable=0;points=[[0,0.5],[1,0.5]];portConstraint=eastwest;fontSize=16;strokeWidth=2;sketch=0;shadow=0;rounded=0;glass=0;spacing=0;" vertex="1" parent="dT_OWnXESL6n3b-seBim-1">
          <mxGeometry y="100" width="165" height="30" as="geometry" />
        </mxCell>
        <mxCell id="dT_OWnXESL6n3b-seBim-4" value="email" style="text;strokeColor=#FFFFFF;fillColor=#FDE5CD;spacingLeft=10;spacingRight=0;overflow=hidden;rotatable=0;points=[[0,0.5],[1,0.5]];portConstraint=eastwest;fontSize=16;strokeWidth=2;sketch=0;shadow=0;rounded=0;glass=0;spacing=0;" vertex="1" parent="dT_OWnXESL6n3b-seBim-1">
          <mxGeometry y="130" width="165" height="30" as="geometry" />
        </mxCell>
        <mxCell id="dT_OWnXESL6n3b-seBim-7" value="password" style="text;strokeColor=#FFFFFF;fillColor=#FDE5CD;spacingLeft=10;spacingRight=0;overflow=hidden;rotatable=0;points=[[0,0.5],[1,0.5]];portConstraint=eastwest;fontSize=16;strokeWidth=2;sketch=0;shadow=0;rounded=0;glass=0;spacing=0;" vertex="1" parent="dT_OWnXESL6n3b-seBim-1">
          <mxGeometry y="160" width="165" height="30" as="geometry" />
        </mxCell>
        <mxCell id="dT_OWnXESL6n3b-seBim-5" value="nickname" style="text;strokeColor=#FFFFFF;fillColor=#FDE5CD;spacingLeft=10;spacingRight=0;overflow=hidden;rotatable=0;points=[[0,0.5],[1,0.5]];portConstraint=eastwest;fontSize=16;strokeWidth=2;sketch=0;shadow=0;rounded=0;glass=0;spacing=0;" vertex="1" parent="dT_OWnXESL6n3b-seBim-1">
          <mxGeometry y="190" width="165" height="30" as="geometry" />
        </mxCell>
        <mxCell id="dT_OWnXESL6n3b-seBim-17" value="profile" style="text;strokeColor=#FFFFFF;fillColor=#FDE5CD;spacingLeft=10;spacingRight=0;overflow=hidden;rotatable=0;points=[[0,0.5],[1,0.5]];portConstraint=eastwest;fontSize=16;strokeWidth=2;sketch=0;shadow=0;rounded=0;glass=0;spacing=0;" vertex="1" parent="dT_OWnXESL6n3b-seBim-1">
          <mxGeometry y="220" width="165" height="30" as="geometry" />
        </mxCell>
        <mxCell id="dT_OWnXESL6n3b-seBim-22" value="avatar" style="text;strokeColor=#FFFFFF;fillColor=#FDE5CD;spacingLeft=10;spacingRight=0;overflow=hidden;rotatable=0;points=[[0,0.5],[1,0.5]];portConstraint=eastwest;fontSize=16;strokeWidth=2;sketch=0;shadow=0;rounded=0;glass=0;spacing=0;" vertex="1" parent="dT_OWnXESL6n3b-seBim-1">
          <mxGeometry y="250" width="165" height="30" as="geometry" />
        </mxCell>
        <mxCell id="dT_OWnXESL6n3b-seBim-21" value="cover" style="text;strokeColor=#FFFFFF;fillColor=#FDE5CD;spacingLeft=10;spacingRight=0;overflow=hidden;rotatable=0;points=[[0,0.5],[1,0.5]];portConstraint=eastwest;fontSize=16;strokeWidth=2;sketch=0;shadow=0;rounded=0;glass=0;spacing=0;" vertex="1" parent="dT_OWnXESL6n3b-seBim-1">
          <mxGeometry y="280" width="165" height="30" as="geometry" />
        </mxCell>
        <mxCell id="dT_OWnXESL6n3b-seBim-23" value="following_count" style="text;strokeColor=#FFFFFF;fillColor=#FDE5CD;spacingLeft=10;spacingRight=0;overflow=hidden;rotatable=0;points=[[0,0.5],[1,0.5]];portConstraint=eastwest;fontSize=16;strokeWidth=2;sketch=0;shadow=0;rounded=0;glass=0;spacing=0;" vertex="1" parent="dT_OWnXESL6n3b-seBim-1">
          <mxGeometry y="310" width="165" height="30" as="geometry" />
        </mxCell>
        <mxCell id="dT_OWnXESL6n3b-seBim-20" value="fans_count" style="text;strokeColor=#FFFFFF;fillColor=#FDE5CD;spacingLeft=10;spacingRight=0;overflow=hidden;rotatable=0;points=[[0,0.5],[1,0.5]];portConstraint=eastwest;fontSize=16;strokeWidth=2;sketch=0;shadow=0;rounded=0;glass=0;spacing=0;" vertex="1" parent="dT_OWnXESL6n3b-seBim-1">
          <mxGeometry y="340" width="165" height="30" as="geometry" />
        </mxCell>
        <mxCell id="dT_OWnXESL6n3b-seBim-19" value="login_time" style="text;strokeColor=#FFFFFF;fillColor=#FDE5CD;spacingLeft=10;spacingRight=0;overflow=hidden;rotatable=0;points=[[0,0.5],[1,0.5]];portConstraint=eastwest;fontSize=16;strokeWidth=2;sketch=0;shadow=0;rounded=0;glass=0;spacing=0;" vertex="1" parent="dT_OWnXESL6n3b-seBim-1">
          <mxGeometry y="370" width="165" height="30" as="geometry" />
        </mxCell>
        <mxCell id="dT_OWnXESL6n3b-seBim-18" value="updated_at" style="text;strokeColor=#FFFFFF;fillColor=#FDE5CD;spacingLeft=10;spacingRight=0;overflow=hidden;rotatable=0;points=[[0,0.5],[1,0.5]];portConstraint=eastwest;fontSize=16;strokeWidth=2;sketch=0;shadow=0;rounded=0;glass=0;spacing=0;" vertex="1" parent="dT_OWnXESL6n3b-seBim-1">
          <mxGeometry y="400" width="165" height="30" as="geometry" />
        </mxCell>
        <mxCell id="dT_OWnXESL6n3b-seBim-8" value="created_at" style="text;strokeColor=#FFFFFF;fillColor=#FDE5CD;spacingLeft=10;spacingRight=0;overflow=hidden;rotatable=0;points=[[0,0.5],[1,0.5]];portConstraint=eastwest;fontSize=16;strokeWidth=2;sketch=0;shadow=0;rounded=0;glass=0;spacing=0;" vertex="1" parent="dT_OWnXESL6n3b-seBim-1">
          <mxGeometry y="430" width="165" height="30" as="geometry" />
        </mxCell>
        <mxCell id="dT_OWnXESL6n3b-seBim-24" value="follows" style="swimlane;fontStyle=0;childLayout=stackLayout;horizontal=1;startSize=40;horizontalStack=0;resizeParent=1;resizeParentMax=0;resizeLast=0;collapsible=1;marginBottom=0;align=left;fontSize=16;fontColor=#FFFFFF;fillColor=#FF6602;spacing=0;strokeColor=#FFFFFF;strokeWidth=2;spacingLeft=10;" vertex="1" parent="1">
          <mxGeometry x="550" y="-800" width="165" height="160" as="geometry">
            <mxRectangle x="150" y="220" width="110" height="40" as="alternateBounds" />
          </mxGeometry>
        </mxCell>
        <mxCell id="dT_OWnXESL6n3b-seBim-25" value="PK : id" style="text;strokeColor=#FFFFFF;fillColor=#FDE5CD;spacingLeft=10;spacingRight=0;overflow=hidden;rotatable=0;points=[[0,0.5],[1,0.5]];portConstraint=eastwest;fontSize=16;strokeWidth=2;perimeterSpacing=0;sketch=0;shadow=0;rounded=0;glass=0;spacing=0;fontStyle=0" vertex="1" parent="dT_OWnXESL6n3b-seBim-24">
          <mxGeometry y="40" width="165" height="30" as="geometry" />
        </mxCell>
        <mxCell id="dT_OWnXESL6n3b-seBim-26" value="created_at" style="text;strokeColor=#FFFFFF;fillColor=#FDE5CD;spacingLeft=10;spacingRight=0;overflow=hidden;rotatable=0;points=[[0,0.5],[1,0.5]];portConstraint=eastwest;fontSize=16;strokeWidth=2;sketch=0;shadow=0;rounded=0;glass=0;spacing=0;" vertex="1" parent="dT_OWnXESL6n3b-seBim-24">
          <mxGeometry y="70" width="165" height="30" as="geometry" />
        </mxCell>
        <mxCell id="dT_OWnXESL6n3b-seBim-27" value="FK : follower_id" style="text;strokeColor=#FFFFFF;fillColor=#FDE5CD;spacingLeft=10;spacingRight=0;overflow=hidden;rotatable=0;points=[[0,0.5],[1,0.5]];portConstraint=eastwest;fontSize=16;strokeWidth=2;sketch=0;shadow=0;rounded=0;glass=0;spacing=0;" vertex="1" parent="dT_OWnXESL6n3b-seBim-24">
          <mxGeometry y="100" width="165" height="30" as="geometry" />
        </mxCell>
        <mxCell id="dT_OWnXESL6n3b-seBim-28" value="FK : target_id" style="text;strokeColor=#FFFFFF;fillColor=#FDE5CD;spacingLeft=10;spacingRight=0;overflow=hidden;rotatable=0;points=[[0,0.5],[1,0.5]];portConstraint=eastwest;fontSize=16;strokeWidth=2;sketch=0;shadow=0;rounded=0;glass=0;spacing=0;" vertex="1" parent="dT_OWnXESL6n3b-seBim-24">
          <mxGeometry y="130" width="165" height="30" as="geometry" />
        </mxCell>
        <mxCell id="dT_OWnXESL6n3b-seBim-30" value="comments" style="swimlane;fontStyle=0;childLayout=stackLayout;horizontal=1;startSize=40;horizontalStack=0;resizeParent=1;resizeParentMax=0;resizeLast=0;collapsible=1;marginBottom=0;align=left;fontSize=16;fontColor=#FFFFFF;fillColor=#FF6602;spacing=0;strokeColor=#FFFFFF;strokeWidth=2;spacingLeft=10;" vertex="1" parent="1">
          <mxGeometry x="550" y="-270" width="165" height="220" as="geometry">
            <mxRectangle x="150" y="220" width="110" height="40" as="alternateBounds" />
          </mxGeometry>
        </mxCell>
        <mxCell id="dT_OWnXESL6n3b-seBim-31" value="PK : id" style="text;strokeColor=#FFFFFF;fillColor=#FDE5CD;spacingLeft=10;spacingRight=0;overflow=hidden;rotatable=0;points=[[0,0.5],[1,0.5]];portConstraint=eastwest;fontSize=16;strokeWidth=2;perimeterSpacing=0;sketch=0;shadow=0;rounded=0;glass=0;spacing=0;fontStyle=0" vertex="1" parent="dT_OWnXESL6n3b-seBim-30">
          <mxGeometry y="40" width="165" height="30" as="geometry" />
        </mxCell>
        <mxCell id="dT_OWnXESL6n3b-seBim-32" value="content" style="text;strokeColor=#FFFFFF;fillColor=#FDE5CD;spacingLeft=10;spacingRight=0;overflow=hidden;rotatable=0;points=[[0,0.5],[1,0.5]];portConstraint=eastwest;fontSize=16;strokeWidth=2;sketch=0;shadow=0;rounded=0;glass=0;spacing=0;" vertex="1" parent="dT_OWnXESL6n3b-seBim-30">
          <mxGeometry y="70" width="165" height="30" as="geometry" />
        </mxCell>
        <mxCell id="dT_OWnXESL6n3b-seBim-36" value="updated_at" style="text;strokeColor=#FFFFFF;fillColor=#FDE5CD;spacingLeft=10;spacingRight=0;overflow=hidden;rotatable=0;points=[[0,0.5],[1,0.5]];portConstraint=eastwest;fontSize=16;strokeWidth=2;sketch=0;shadow=0;rounded=0;glass=0;spacing=0;" vertex="1" parent="dT_OWnXESL6n3b-seBim-30">
          <mxGeometry y="100" width="165" height="30" as="geometry" />
        </mxCell>
        <mxCell id="dT_OWnXESL6n3b-seBim-33" value="created_at" style="text;strokeColor=#FFFFFF;fillColor=#FDE5CD;spacingLeft=10;spacingRight=0;overflow=hidden;rotatable=0;points=[[0,0.5],[1,0.5]];portConstraint=eastwest;fontSize=16;strokeWidth=2;sketch=0;shadow=0;rounded=0;glass=0;spacing=0;" vertex="1" parent="dT_OWnXESL6n3b-seBim-30">
          <mxGeometry y="130" width="165" height="30" as="geometry" />
        </mxCell>
        <mxCell id="dT_OWnXESL6n3b-seBim-35" value="FK : tweet_id" style="text;strokeColor=#FFFFFF;fillColor=#FDE5CD;spacingLeft=10;spacingRight=0;overflow=hidden;rotatable=0;points=[[0,0.5],[1,0.5]];portConstraint=eastwest;fontSize=16;strokeWidth=2;sketch=0;shadow=0;rounded=0;glass=0;spacing=0;" vertex="1" parent="dT_OWnXESL6n3b-seBim-30">
          <mxGeometry y="160" width="165" height="30" as="geometry" />
        </mxCell>
        <mxCell id="dT_OWnXESL6n3b-seBim-34" value="FK : user_id" style="text;strokeColor=#FFFFFF;fillColor=#FDE5CD;spacingLeft=10;spacingRight=0;overflow=hidden;rotatable=0;points=[[0,0.5],[1,0.5]];portConstraint=eastwest;fontSize=16;strokeWidth=2;sketch=0;shadow=0;rounded=0;glass=0;spacing=0;" vertex="1" parent="dT_OWnXESL6n3b-seBim-30">
          <mxGeometry y="190" width="165" height="30" as="geometry" />
        </mxCell>
        <mxCell id="dT_OWnXESL6n3b-seBim-37" value="likes" style="swimlane;fontStyle=0;childLayout=stackLayout;horizontal=1;startSize=40;horizontalStack=0;resizeParent=1;resizeParentMax=0;resizeLast=0;collapsible=1;marginBottom=0;align=left;fontSize=16;fontColor=#FFFFFF;fillColor=#FF6602;spacing=0;strokeColor=#FFFFFF;strokeWidth=2;spacingLeft=10;" vertex="1" parent="1">
          <mxGeometry x="550" y="-427" width="165" height="130" as="geometry">
            <mxRectangle x="150" y="220" width="110" height="40" as="alternateBounds" />
          </mxGeometry>
        </mxCell>
        <mxCell id="dT_OWnXESL6n3b-seBim-38" value="PK : id" style="text;strokeColor=#FFFFFF;fillColor=#FDE5CD;spacingLeft=10;spacingRight=0;overflow=hidden;rotatable=0;points=[[0,0.5],[1,0.5]];portConstraint=eastwest;fontSize=16;strokeWidth=2;perimeterSpacing=0;sketch=0;shadow=0;rounded=0;glass=0;spacing=0;fontStyle=0" vertex="1" parent="dT_OWnXESL6n3b-seBim-37">
          <mxGeometry y="40" width="165" height="30" as="geometry" />
        </mxCell>
        <mxCell id="dT_OWnXESL6n3b-seBim-39" value="FK : tweet_id" style="text;strokeColor=#FFFFFF;fillColor=#FDE5CD;spacingLeft=10;spacingRight=0;overflow=hidden;rotatable=0;points=[[0,0.5],[1,0.5]];portConstraint=eastwest;fontSize=16;strokeWidth=2;sketch=0;shadow=0;rounded=0;glass=0;spacing=0;" vertex="1" parent="dT_OWnXESL6n3b-seBim-37">
          <mxGeometry y="70" width="165" height="30" as="geometry" />
        </mxCell>
        <mxCell id="dT_OWnXESL6n3b-seBim-40" value="FK : user_id" style="text;strokeColor=#FFFFFF;fillColor=#FDE5CD;spacingLeft=10;spacingRight=0;overflow=hidden;rotatable=0;points=[[0,0.5],[1,0.5]];portConstraint=eastwest;fontSize=16;strokeWidth=2;sketch=0;shadow=0;rounded=0;glass=0;spacing=0;" vertex="1" parent="dT_OWnXESL6n3b-seBim-37">
          <mxGeometry y="100" width="165" height="30" as="geometry" />
        </mxCell>
        <mxCell id="dT_OWnXESL6n3b-seBim-41" value="tweets" style="swimlane;fontStyle=0;childLayout=stackLayout;horizontal=1;startSize=40;horizontalStack=0;resizeParent=1;resizeParentMax=0;resizeLast=0;collapsible=1;marginBottom=0;align=left;fontSize=16;fontColor=#FFFFFF;fillColor=#FF6602;spacing=0;strokeColor=#FFFFFF;strokeWidth=2;spacingLeft=10;" vertex="1" parent="1">
          <mxGeometry x="550" y="-630" width="165" height="190" as="geometry">
            <mxRectangle x="150" y="220" width="110" height="40" as="alternateBounds" />
          </mxGeometry>
        </mxCell>
        <mxCell id="dT_OWnXESL6n3b-seBim-42" value="PK : id" style="text;strokeColor=#FFFFFF;fillColor=#FDE5CD;spacingLeft=10;spacingRight=0;overflow=hidden;rotatable=0;points=[[0,0.5],[1,0.5]];portConstraint=eastwest;fontSize=16;strokeWidth=2;perimeterSpacing=0;sketch=0;shadow=0;rounded=0;glass=0;spacing=0;fontStyle=0" vertex="1" parent="dT_OWnXESL6n3b-seBim-41">
          <mxGeometry y="40" width="165" height="30" as="geometry" />
        </mxCell>
        <mxCell id="dT_OWnXESL6n3b-seBim-57" value="content" style="text;strokeColor=#FFFFFF;fillColor=#FDE5CD;spacingLeft=10;spacingRight=0;overflow=hidden;rotatable=0;points=[[0,0.5],[1,0.5]];portConstraint=eastwest;fontSize=16;strokeWidth=2;sketch=0;shadow=0;rounded=0;glass=0;spacing=0;" vertex="1" parent="dT_OWnXESL6n3b-seBim-41">
          <mxGeometry y="70" width="165" height="30" as="geometry" />
        </mxCell>
        <mxCell id="dT_OWnXESL6n3b-seBim-70" value="updated_at" style="text;strokeColor=#FFFFFF;fillColor=#FDE5CD;spacingLeft=10;spacingRight=0;overflow=hidden;rotatable=0;points=[[0,0.5],[1,0.5]];portConstraint=eastwest;fontSize=16;strokeWidth=2;sketch=0;shadow=0;rounded=0;glass=0;spacing=0;" vertex="1" parent="dT_OWnXESL6n3b-seBim-41">
          <mxGeometry y="100" width="165" height="30" as="geometry" />
        </mxCell>
        <mxCell id="dT_OWnXESL6n3b-seBim-43" value="created_at" style="text;strokeColor=#FFFFFF;fillColor=#FDE5CD;spacingLeft=10;spacingRight=0;overflow=hidden;rotatable=0;points=[[0,0.5],[1,0.5]];portConstraint=eastwest;fontSize=16;strokeWidth=2;sketch=0;shadow=0;rounded=0;glass=0;spacing=0;" vertex="1" parent="dT_OWnXESL6n3b-seBim-41">
          <mxGeometry y="130" width="165" height="30" as="geometry" />
        </mxCell>
        <mxCell id="dT_OWnXESL6n3b-seBim-44" value="FK : user_id" style="text;strokeColor=#FFFFFF;fillColor=#FDE5CD;spacingLeft=10;spacingRight=0;overflow=hidden;rotatable=0;points=[[0,0.5],[1,0.5]];portConstraint=eastwest;fontSize=16;strokeWidth=2;sketch=0;shadow=0;rounded=0;glass=0;spacing=0;" vertex="1" parent="dT_OWnXESL6n3b-seBim-41">
          <mxGeometry y="160" width="165" height="30" as="geometry" />
        </mxCell>
        <mxCell id="dT_OWnXESL6n3b-seBim-46" value="admins" style="swimlane;fontStyle=0;childLayout=stackLayout;horizontal=1;startSize=40;horizontalStack=0;resizeParent=1;resizeParentMax=0;resizeLast=0;collapsible=1;marginBottom=0;align=left;fontSize=16;fontColor=#FFFFFF;fillColor=#FF6602;spacing=0;strokeColor=#FFFFFF;strokeWidth=2;spacingLeft=10;" vertex="1" parent="1">
          <mxGeometry x="240" y="-270" width="165" height="160" as="geometry">
            <mxRectangle x="150" y="220" width="110" height="40" as="alternateBounds" />
          </mxGeometry>
        </mxCell>
        <mxCell id="dT_OWnXESL6n3b-seBim-47" value="PK : id" style="text;strokeColor=#FFFFFF;fillColor=#FDE5CD;spacingLeft=10;spacingRight=0;overflow=hidden;rotatable=0;points=[[0,0.5],[1,0.5]];portConstraint=eastwest;fontSize=16;strokeWidth=2;perimeterSpacing=0;sketch=0;shadow=0;rounded=0;glass=0;spacing=0;fontStyle=0" vertex="1" parent="dT_OWnXESL6n3b-seBim-46">
          <mxGeometry y="40" width="165" height="30" as="geometry" />
        </mxCell>
        <mxCell id="dT_OWnXESL6n3b-seBim-48" value="name" style="text;strokeColor=#FFFFFF;fillColor=#FDE5CD;spacingLeft=10;spacingRight=0;overflow=hidden;rotatable=0;points=[[0,0.5],[1,0.5]];portConstraint=eastwest;fontSize=16;strokeWidth=2;sketch=0;shadow=0;rounded=0;glass=0;spacing=0;" vertex="1" parent="dT_OWnXESL6n3b-seBim-46">
          <mxGeometry y="70" width="165" height="30" as="geometry" />
        </mxCell>
        <mxCell id="dT_OWnXESL6n3b-seBim-49" value="account" style="text;strokeColor=#FFFFFF;fillColor=#FDE5CD;spacingLeft=10;spacingRight=0;overflow=hidden;rotatable=0;points=[[0,0.5],[1,0.5]];portConstraint=eastwest;fontSize=16;strokeWidth=2;sketch=0;shadow=0;rounded=0;glass=0;spacing=0;" vertex="1" parent="dT_OWnXESL6n3b-seBim-46">
          <mxGeometry y="100" width="165" height="30" as="geometry" />
        </mxCell>
        <mxCell id="dT_OWnXESL6n3b-seBim-50" value="password" style="text;strokeColor=#FFFFFF;fillColor=#FDE5CD;spacingLeft=10;spacingRight=0;overflow=hidden;rotatable=0;points=[[0,0.5],[1,0.5]];portConstraint=eastwest;fontSize=16;strokeWidth=2;sketch=0;shadow=0;rounded=0;glass=0;spacing=0;" vertex="1" parent="dT_OWnXESL6n3b-seBim-46">
          <mxGeometry y="130" width="165" height="30" as="geometry" />
        </mxCell>
        <mxCell id="dT_OWnXESL6n3b-seBim-51" style="edgeStyle=orthogonalEdgeStyle;rounded=0;orthogonalLoop=1;jettySize=auto;html=1;fontSize=16;fontColor=#FFFFFF;strokeWidth=3;strokeColor=#33BFCC;entryX=0;entryY=0.5;entryDx=0;entryDy=0;exitX=1;exitY=0.5;exitDx=0;exitDy=0;" edge="1" parent="1" source="dT_OWnXESL6n3b-seBim-2" target="dT_OWnXESL6n3b-seBim-27">
          <mxGeometry relative="1" as="geometry">
            <mxPoint x="430" y="-736.9973684210524" as="sourcePoint" />
            <mxPoint x="520" y="-677.05" as="targetPoint" />
          </mxGeometry>
        </mxCell>
        <mxCell id="dT_OWnXESL6n3b-seBim-52" style="edgeStyle=orthogonalEdgeStyle;rounded=0;orthogonalLoop=1;jettySize=auto;html=1;fontSize=16;fontColor=#FFFFFF;strokeWidth=3;strokeColor=#33BFCC;entryX=0;entryY=0.5;entryDx=0;entryDy=0;exitX=1;exitY=0.5;exitDx=0;exitDy=0;" edge="1" parent="1" source="dT_OWnXESL6n3b-seBim-2" target="dT_OWnXESL6n3b-seBim-28">
          <mxGeometry relative="1" as="geometry">
            <mxPoint x="480" y="-687" as="sourcePoint" />
            <mxPoint x="590" y="-557" as="targetPoint" />
          </mxGeometry>
        </mxCell>
        <mxCell id="dT_OWnXESL6n3b-seBim-53" value="&lt;div&gt;1&lt;/div&gt;" style="text;html=1;align=center;verticalAlign=middle;resizable=0;points=[];autosize=1;strokeColor=none;fillColor=none;fontSize=16;fontColor=#000000;" vertex="1" parent="1">
          <mxGeometry x="410" y="-767" width="20" height="20" as="geometry" />
        </mxCell>
        <mxCell id="dT_OWnXESL6n3b-seBim-54" value="M" style="text;html=1;align=center;verticalAlign=middle;resizable=0;points=[];autosize=1;strokeColor=none;fillColor=none;fontSize=16;fontColor=#000000;" vertex="1" parent="1">
          <mxGeometry x="505" y="-707" width="30" height="20" as="geometry" />
        </mxCell>
        <mxCell id="dT_OWnXESL6n3b-seBim-56" value="M" style="text;html=1;align=center;verticalAlign=middle;resizable=0;points=[];autosize=1;strokeColor=none;fillColor=none;fontSize=16;fontColor=#000000;" vertex="1" parent="1">
          <mxGeometry x="505" y="-677" width="30" height="20" as="geometry" />
        </mxCell>
        <mxCell id="dT_OWnXESL6n3b-seBim-58" style="edgeStyle=orthogonalEdgeStyle;rounded=0;orthogonalLoop=1;jettySize=auto;html=1;fontSize=16;fontColor=#FFFFFF;strokeWidth=3;strokeColor=#33BFCC;entryX=1;entryY=0.5;entryDx=0;entryDy=0;exitX=1;exitY=0.5;exitDx=0;exitDy=0;" edge="1" parent="1" source="dT_OWnXESL6n3b-seBim-42" target="dT_OWnXESL6n3b-seBim-39">
          <mxGeometry relative="1" as="geometry">
            <mxPoint x="590" y="-597" as="sourcePoint" />
            <mxPoint x="735" y="-507" as="targetPoint" />
            <Array as="points">
              <mxPoint x="770" y="-575" />
              <mxPoint x="770" y="-342" />
            </Array>
          </mxGeometry>
        </mxCell>
        <mxCell id="dT_OWnXESL6n3b-seBim-59" style="edgeStyle=orthogonalEdgeStyle;rounded=0;orthogonalLoop=1;jettySize=auto;html=1;fontSize=16;fontColor=#FFFFFF;strokeWidth=3;strokeColor=#33BFCC;entryX=0;entryY=0.5;entryDx=0;entryDy=0;exitX=1;exitY=0.5;exitDx=0;exitDy=0;" edge="1" parent="1" source="dT_OWnXESL6n3b-seBim-2" target="dT_OWnXESL6n3b-seBim-44">
          <mxGeometry relative="1" as="geometry">
            <mxPoint x="415" y="-735" as="sourcePoint" />
            <mxPoint x="560" y="-645" as="targetPoint" />
          </mxGeometry>
        </mxCell>
        <mxCell id="dT_OWnXESL6n3b-seBim-60" value="M" style="text;html=1;align=center;verticalAlign=middle;resizable=0;points=[];autosize=1;strokeColor=none;fillColor=none;fontSize=16;fontColor=#000000;" vertex="1" parent="1">
          <mxGeometry x="505" y="-490" width="30" height="20" as="geometry" />
        </mxCell>
        <mxCell id="dT_OWnXESL6n3b-seBim-61" style="edgeStyle=orthogonalEdgeStyle;rounded=0;orthogonalLoop=1;jettySize=auto;html=1;fontSize=16;fontColor=#FFFFFF;strokeWidth=3;strokeColor=#33BFCC;entryX=0;entryY=0.5;entryDx=0;entryDy=0;exitX=1;exitY=0.5;exitDx=0;exitDy=0;" edge="1" parent="1" source="dT_OWnXESL6n3b-seBim-2" target="dT_OWnXESL6n3b-seBim-40">
          <mxGeometry relative="1" as="geometry">
            <mxPoint x="725" y="-562" as="sourcePoint" />
            <mxPoint x="560" y="-332" as="targetPoint" />
          </mxGeometry>
        </mxCell>
        <mxCell id="dT_OWnXESL6n3b-seBim-62" value="M" style="text;html=1;align=center;verticalAlign=middle;resizable=0;points=[];autosize=1;strokeColor=none;fillColor=none;fontSize=16;fontColor=#000000;" vertex="1" parent="1">
          <mxGeometry x="505" y="-337" width="30" height="20" as="geometry" />
        </mxCell>
        <mxCell id="dT_OWnXESL6n3b-seBim-63" style="edgeStyle=orthogonalEdgeStyle;rounded=0;orthogonalLoop=1;jettySize=auto;html=1;fontSize=16;fontColor=#FFFFFF;strokeWidth=3;strokeColor=#33BFCC;exitX=1;exitY=0.5;exitDx=0;exitDy=0;entryX=0;entryY=0.5;entryDx=0;entryDy=0;" edge="1" parent="1" source="dT_OWnXESL6n3b-seBim-2" target="dT_OWnXESL6n3b-seBim-34">
          <mxGeometry relative="1" as="geometry">
            <mxPoint x="440" y="-530" as="sourcePoint" />
            <mxPoint x="800" y="-562" as="targetPoint" />
          </mxGeometry>
        </mxCell>
        <mxCell id="dT_OWnXESL6n3b-seBim-64" value="M" style="text;html=1;align=center;verticalAlign=middle;resizable=0;points=[];autosize=1;strokeColor=none;fillColor=none;fontSize=16;fontColor=#000000;" vertex="1" parent="1">
          <mxGeometry x="505" y="-90" width="30" height="20" as="geometry" />
        </mxCell>
        <mxCell id="dT_OWnXESL6n3b-seBim-66" style="edgeStyle=orthogonalEdgeStyle;rounded=0;orthogonalLoop=1;jettySize=auto;html=1;fontSize=16;fontColor=#FFFFFF;strokeWidth=3;strokeColor=#33BFCC;entryX=1;entryY=0.5;entryDx=0;entryDy=0;exitX=1;exitY=0.5;exitDx=0;exitDy=0;" edge="1" parent="1" source="dT_OWnXESL6n3b-seBim-42" target="dT_OWnXESL6n3b-seBim-35">
          <mxGeometry relative="1" as="geometry">
            <mxPoint x="725" y="-562" as="sourcePoint" />
            <mxPoint x="725" y="-332" as="targetPoint" />
            <Array as="points">
              <mxPoint x="770" y="-575" />
              <mxPoint x="770" y="-95" />
            </Array>
          </mxGeometry>
        </mxCell>
        <mxCell id="dT_OWnXESL6n3b-seBim-67" value="M" style="text;html=1;align=center;verticalAlign=middle;resizable=0;points=[];autosize=1;strokeColor=none;fillColor=none;fontSize=16;fontColor=#000000;" vertex="1" parent="1">
          <mxGeometry x="725" y="-120" width="30" height="20" as="geometry" />
        </mxCell>
        <mxCell id="dT_OWnXESL6n3b-seBim-68" value="&lt;div&gt;1&lt;/div&gt;" style="text;html=1;align=center;verticalAlign=middle;resizable=0;points=[];autosize=1;strokeColor=none;fillColor=none;fontSize=16;fontColor=#000000;" vertex="1" parent="1">
          <mxGeometry x="730" y="-600" width="20" height="20" as="geometry" />
        </mxCell>
        <mxCell id="dT_OWnXESL6n3b-seBim-69" value="M" style="text;html=1;align=center;verticalAlign=middle;resizable=0;points=[];autosize=1;strokeColor=none;fillColor=none;fontSize=16;fontColor=#000000;" vertex="1" parent="1">
          <mxGeometry x="725" y="-370" width="30" height="20" as="geometry" />
        </mxCell>
      </root>
    </mxGraphModel>
  </diagram>
</mxfile>
